<svg width="30" height="30" viewBox="0 0 30 30" fill="none" xmlns="http://www.w3.org/2000/svg">
<g clip-path="url(#clip0)">
<path d="M30 15C30 14.0575 29.9116 13.1142 29.7365 12.1984C29.6575 11.7839 29.2945 11.4843 28.8731 11.4843H15.0586C14.5728 11.4843 14.1797 11.8774 14.1797 12.3632V17.6366C14.1797 18.1224 14.5728 18.5155 15.0586 18.5155H22.1465C21.7049 19.4096 21.0963 20.1853 20.3816 20.8379L25.3492 25.8055C28.2074 23.0823 30 19.2503 30 15Z" fill="#85B6BF"/>
<path d="M15 7.03125C16.7244 7.03125 18.3646 7.57887 19.743 8.61568C20.0915 8.87748 20.5833 8.84572 20.8923 8.53412L24.6431 4.7833C24.8173 4.60904 24.9109 4.36957 24.8997 4.12324C24.8886 3.87691 24.7753 3.64687 24.5864 3.48809C21.9025 1.23855 18.4976 0 15 0C9.85261 0 5.30521 2.61645 2.61699 6.58898L7.77605 11.748C9.00687 8.97563 11.7761 7.03125 15 7.03125Z" fill="#85B6BF"/>
<path d="M15 30C18.3553 30 21.4449 28.875 23.9415 27.0008L18.8807 21.94C17.724 22.5913 16.4019 22.9688 15 22.9688C11.7761 22.9688 9.00687 21.0244 7.77605 18.252L2.61699 23.411C5.30521 27.3836 9.85261 30 15 30Z" fill="#85B6BF"/>
<path d="M7.15922 16.2659C7.09189 15.8511 7.03125 15.4334 7.03125 15C7.03125 14.5666 7.09189 14.1489 7.15922 13.7341L1.64414 8.21901C0.600703 10.2569 0 12.5576 0 15C0 17.4424 0.600703 19.7431 1.6442 21.7809L7.15922 16.2659Z" fill="#85B6BF"/>
</g>
<defs>
<clipPath id="clip0">
<rect width="30" height="30" fill="white"/>
</clipPath>
</defs>
</svg>
